<!DOCTYPE svg PUBLIC "-//W3C//DTD SVG 1.1//EN" "http://www.w3.org/Graphics/SVG/1.1/DTD/svg11.dtd">
<!-- Uploaded to: SVG Repo, www.svgrepo.com, Transformed by: SVG Repo Mixer Tools -->
<svg fill="#ffffff" height="800px" width="800px" version="1.1" id="Capa_1" xmlns="http://www.w3.org/2000/svg" xmlns:xlink="http://www.w3.org/1999/xlink" viewBox="0 0 487.586 487.586" xml:space="preserve" stroke="#ffffff">
<g id="SVGRepo_bgCarrier" stroke-width="0"/>
<g id="SVGRepo_tracerCarrier" stroke-linecap="round" stroke-linejoin="round"/>
<g id="SVGRepo_iconCarrier"> <g> <g> <circle cx="82.573" cy="294.182" r="60.937"/> <circle cx="243.771" cy="294.182" r="60.937"/> <circle cx="404.948" cy="294.182" r="60.937"/> <path d="M404.948,361.267c-39.518,0-72.435,26.661-80.567,62.404c-8.111-35.635-41.049-62.404-80.61-62.404 c-39.539,0-72.478,26.661-80.567,62.404c-8.132-35.635-41.071-62.404-80.61-62.404C36.972,361.267,0,396.816,0,440.669v44.091 h487.586v-44.091C487.586,396.816,450.592,361.267,404.948,361.267L404.948,361.267z"/> <path d="M325.719,115.814c-33.629,0-60.873,27.309-60.873,60.937s27.287,60.959,60.873,60.959 c33.737,0,60.981-27.33,60.981-60.959S359.456,115.814,325.719,115.814z"/> <circle cx="161.781" cy="176.773" r="60.959"/> <circle cx="243.793" cy="63.763" r="60.937"/> </g> <g> </g> <g> </g> <g> </g> <g> </g> <g> </g> <g> </g> <g> </g> <g> </g> <g> </g> <g> </g> <g> </g> <g> </g> <g> </g> <g> </g> <g> </g> </g> </g>
</svg>