<!DOCTYPE svg PUBLIC "-//W3C//DTD SVG 1.1//EN" "http://www.w3.org/Graphics/SVG/1.1/DTD/svg11.dtd">
<!-- Uploaded to: SVG Repo, www.svgrepo.com, Transformed by: SVG Repo Mixer Tools -->
<svg fill="#ffffff" version="1.1" id="Layer_1" xmlns="http://www.w3.org/2000/svg" xmlns:xlink="http://www.w3.org/1999/xlink" viewBox="0 0 512 512" xml:space="preserve" width="800px" height="800px" stroke="#ffffff">
<g id="SVGRepo_bgCarrier" stroke-width="0"/>
<g id="SVGRepo_tracerCarrier" stroke-linecap="round" stroke-linejoin="round"/>
<g id="SVGRepo_iconCarrier"> <g> <g> <polygon points="430.073,41.67 430.073,80.511 399.676,80.511 399.676,41.67 87.175,41.67 87.175,80.511 56.778,80.511 56.778,41.67 0,41.67 0,111.974 486.849,111.974 486.849,41.67 "/> </g> </g> <g> <g> <rect x="127.789" y="264.394" width="35.021" height="30.935"/> </g> </g> <g> <g> <rect x="324.043" y="264.394" width="35.02" height="30.935"/> </g> </g> <g> <g> <rect x="258.629" y="264.394" width="35.021" height="30.935"/> </g> </g> <g> <g> <rect x="193.204" y="264.394" width="35.021" height="30.935"/> </g> </g> <g> <g> <path d="M0,142.371v274.925h330.148c-1.775-7.735-2.714-15.785-2.714-24.051c0-25.556,8.971-49.053,23.923-67.52h-27.315v32.867 h-30.397v-32.867h-35.021v32.867h-30.397v-32.867h-35.021v32.867h-30.397v-32.867h-35.019v32.867H97.392v-32.867H63.158v-30.397 h34.234v-30.935H63.158v-30.397h34.234v-32.867h30.397v32.867h35.021v-32.867h30.397v32.867h35.021v-32.867h30.397v32.867h35.021 v-32.867h30.397v32.867h35.02v-32.867h30.397v32.867h34.234v30.397h-34.234v30.935h1.148c13.518-6.141,28.522-9.565,44.311-9.565 c18.824,0,36.53,4.871,51.935,13.408V142.371H0z"/> </g> </g> <g> <g> <path d="M434.915,316.159c-42.504,0-77.084,34.58-77.084,77.085s34.58,77.085,77.084,77.085c42.504,0,77.085-34.581,77.085-77.085 S477.419,316.159,434.915,316.159z M417.73,447.894l-42.69-42.691l21.494-21.494l21.196,21.196l55.565-55.564l21.494,21.494 L417.73,447.894z"/> </g> </g> </g>
</svg>