<?xml version="1.0" encoding="UTF-8"?>
<svg width="24px" height="24px" viewBox="0 0 24 24" version="1.1" xmlns="http://www.w3.org/2000/svg" xmlns:xlink="http://www.w3.org/1999/xlink">
    <title>Mission Icon</title>
    <g id="Mission-Icon" stroke="none" stroke-width="1" fill="none" fill-rule="evenodd">
        <path d="M12,2 C17.5228,2 22,6.47715 22,12 C22,17.5228 17.5228,22 12,22 C6.47715,22 2,17.5228 2,12 C2,6.47715 6.47715,2 12,2 Z" id="Circle" stroke="#00CC61" stroke-width="2"></path>
        <path d="M12,5 C12.5523,5 13,5.44772 13,6 L13,12 L17,12 C17.5523,12 18,12.4477 18,13 C18,13.5523 17.5523,14 17,14 L12,14 C11.4477,14 11,13.5523 11,13 L11,6 C11,5.44772 11.4477,5 12,5 Z" id="Clock-Hand" fill="#00CC61" fill-rule="nonzero"></path>
        <circle id="Center-Dot" fill="#00CC61" cx="12" cy="12" r="1.5"></circle>
        <path d="M12,7 L12,12 L16,12" id="Path" stroke="#00CC61" stroke-width="2" stroke-linecap="round" stroke-linejoin="round"></path>
    </g>
</svg>
